# xmcd
#
# Track frame offsets:
#	150
#	14317
#	32252
#	50292
#	68730
#	85662
#	103482
#	120650
#	136182
#	151197
#
# Disc length: 2220 seconds
#
# Revision: 0
# Processed by: cddbd v1.4PL0 Copyright (c) Steve Scherf et al.
# Submitted via: dBpowerAMP V4.0
#
DISCID=7208aa0a
DTITLE=Freddie King - Texas Cannonball
DYEAR=1972
DGENRE=Blues
TTITLE0=Lowdown In Lodi
TTITLE1=Reconsider Baby
TTITLE2=Big Legged Woman
TTITLE3=Me and My Guitar
TTITLE4=I'd Rather Be Blind
TTITLE5=Can't Trust Your Neighbor
TTITLE6=You Were Wrong
TTITLE7=How Many More Years
TTITLE8=Ain't No Sunshine
TTITLE9=The Sky Is Crying
EXTD=
EXTT0=
EXTT1=
EXTT2=
EXTT3=
EXTT4=
EXTT5=
EXTT6=
EXTT7=
EXTT8=
EXTT9=
PLAYORDER=
